<?xml version="1.0" standalone="no"?>
<!DOCTYPE svg PUBLIC "-//W3C//DTD SVG 1.0//EN" "http://www.w3.org/TR/2001/REC-SVG-20010904/DTD/svg10.dtd">
<svg xmlns="http://www.w3.org/2000/svg" xmlns:xlink="http://www.w3.org/1999/xlink" id="body_1" width="20" height="15">

<g transform="matrix(0.03288154 0 0 0.03288154 2.5 -0)">
	<g>
		<g>
            <path d="M352.531 232.056L352.531 40.703L57.925 40.703L57.925 228.078C 57.925 229.814 57.548 231.531 56.82 233.10701L56.82 233.10701L39.148 271.398L102.201004 233.753C 104.059006 232.64201 106.184006 232.056 108.350006 232.056L108.350006 232.056L352.531 232.056zM96.689 84.738L317.536 84.738C 324.164 84.738 329.536 90.111 329.536 96.738C 329.536 103.365 324.164 108.738 317.536 108.738L317.536 108.738L96.689 108.738C 90.062004 108.738 84.689 103.365 84.689 96.738C 84.689 90.111 90.062 84.738 96.689 84.738zM96.689 174.414C 90.062004 174.414 84.689 169.041 84.689 162.414C 84.689 155.785 90.062004 150.414 96.689 150.414L96.689 150.414L243.15799 150.414C 249.78499 150.414 255.15799 155.785 255.15799 162.414C 255.15799 169.041 249.78499 174.414 243.15799 174.414L243.15799 174.414L96.689 174.414z" stroke="none" fill="none" />
            <path d="M399.109 355.824L399.109 173.457L376.531 173.457L376.531 232.791C 376.531 245.619 366.09302 256.057 353.265 256.057L353.265 256.057L112.502 256.057L112.502 359.403L350.25 359.403C 352.416 359.403 354.541 359.99103 356.4 361.1L356.4 361.1L417.035 397.299L400.215 360.854C 399.486 359.275 399.109 357.56 399.109 355.824zM293.506 312.871L147.037 312.871C 140.41 312.871 135.037 307.49802 135.037 300.871C 135.037 294.244 140.41 288.871 147.037 288.871L147.037 288.871L293.50598 288.871C 300.133 288.871 305.50598 294.244 305.50598 300.871C 305.506 307.498 300.133 312.871 293.506 312.871z" stroke="none" fill="#73D0F4" fill-rule="nonzero" />
            <path d="M455.078 422.451L423.109 353.18698L423.109 172.439C 423.109 159.765 412.80002 149.457 400.12802 149.457L400.12802 149.457L376.531 149.457L376.531 39.968C 376.531 27.14 366.09302 16.701998 353.265 16.701998L353.265 16.701998L57.189 16.701998C 44.361 16.701998 33.924 27.139997 33.924 39.968L33.924 39.968L33.924 225.44301L1.105 296.552C -1.0999999 301.329 0.06400001 306.986 3.975 310.503C 6.236 312.53598 9.108999 313.581 12.003 313.581C 14.117001 313.581 16.244 313.022 18.151001 311.884L18.151001 311.884L88.501 269.884L88.501 360.42102C 88.501 373.09302 98.81 383.40103 111.482 383.40103L111.482 383.40103L346.938 383.40103L438.03 437.78403C 439.937 438.92303 442.063 439.47903 444.178 439.47903C 447.073 439.47903 449.945 438.43402 452.20502 436.40103C 456.119 432.884 457.282 427.228 455.078 422.451zM356.4 361.099C 354.541 359.99 352.416 359.402 350.25 359.402L350.25 359.402L112.502 359.402L112.502 256.056L353.266 256.056C 366.094 256.056 376.53198 245.618 376.53198 232.79L376.53198 232.79L376.53198 173.456L399.11 173.456L399.11 355.823C 399.11 357.559 399.487 359.274 400.215 360.852L400.215 360.852L417.035 397.297L356.4 361.099zM39.148 271.398L56.82 233.10701C 57.548 231.531 57.925 229.81401 57.925 228.078L57.925 228.078L57.925 40.703L352.53098 40.703L352.53098 232.056L108.35 232.056C 106.184 232.056 104.059 232.642 102.201 233.753L102.201 233.753L39.148 271.398z" stroke="none" fill="#3D6889" fill-rule="nonzero" />
            <path d="M96.689 108.738L317.536 108.738C 324.164 108.738 329.536 103.365 329.536 96.738C 329.536 90.111 324.164 84.738 317.536 84.738L317.536 84.738L96.689 84.738C 90.062004 84.738 84.689 90.111 84.689 96.738C 84.689 103.365 90.062 108.738 96.689 108.738z" stroke="none" fill="#3D6889" fill-rule="nonzero" />
            <path d="M255.158 162.414C 255.158 155.785 249.785 150.414 243.158 150.414L243.158 150.414L96.689 150.414C 90.062004 150.414 84.689 155.785 84.689 162.414C 84.689 169.041 90.062004 174.414 96.689 174.414L96.689 174.414L243.15799 174.414C 249.785 174.414 255.158 169.041 255.158 162.414z" stroke="none" fill="#3D6889" fill-rule="nonzero" />
            <path d="M293.506 288.871L147.037 288.871C 140.41 288.871 135.037 294.244 135.037 300.871C 135.037 307.49802 140.41 312.871 147.037 312.871L147.037 312.871L293.50598 312.871C 300.133 312.871 305.50598 307.49802 305.50598 300.871C 305.506 294.244 300.133 288.871 293.506 288.871z" stroke="none" fill="#3D6889" fill-rule="nonzero" />
		</g>
	</g>
	<g>
	</g>
	<g>
	</g>
	<g>
	</g>
	<g>
	</g>
	<g>
	</g>
	<g>
	</g>
	<g>
	</g>
	<g>
	</g>
	<g>
	</g>
	<g>
	</g>
	<g>
	</g>
	<g>
	</g>
	<g>
	</g>
	<g>
	</g>
	<g>
	</g>
</g>
</svg>