<?xml version="1.0" standalone="no"?>
<!DOCTYPE svg PUBLIC "-//W3C//DTD SVG 1.0//EN" "http://www.w3.org/TR/2001/REC-SVG-20010904/DTD/svg10.dtd">
<svg xmlns="http://www.w3.org/2000/svg" xmlns:xlink="http://www.w3.org/1999/xlink" id="body_1" width="20" height="15">

<g transform="matrix(0.03779375 0 0 0.03779375 2.5 -0)">
	<g>
		<g>
            <path d="M110.787 208.066L110.732 208.066C 110.753 208.295 110.771 208.249 110.787 208.066z" stroke="none" fill="none" />
            <path d="M352.324 171.388L285.014 171.388C 284.491 171.388 283.96802 171.354 283.449 171.285C 275.749 170.272 266.329 168.08101 261.80002 160.065C 256.828 151.268 260.699 142.389 265.183 132.108C 270.673 119.518005 278.96902 100.493004 277.523 71.217C 277.518 71.117004 277.526 71.021 277.523 70.922005C 277.522 70.82201 277.508 70.725006 277.508 70.62501C 277.508 59.875008 268.762 51.128006 258.011 51.128006C 247.27399 51.128006 238.53699 59.854004 238.51599 70.586006C 239.39099 102.66 233.93599 109.31601 210.91199 132.065C 208.81499 134.13501 206.54698 136.377 204.094 138.83101C 180.51799 162.40701 177.879 196.56001 177.855 196.901C 177.416 203.188 172.187 208.065 165.884 208.065L165.884 208.065L110.868004 208.065C 110.868004 208.065 110.86201 320.222 110.861 320.313L110.861 320.313L160.965 320.313C 166.19899 320.313 184.03299 320.981 193.739 329.57898C 197.428 332.847 199.718 335.985 201.375 338.628C 206.018 346.025 215.282 345.507 216.161 345.521C 216.161 345.521 324.013 345.223 331.367 344.682C 341.616 343.92902 349.284 340.021 354.16 333.066C 357.56702 328.20502 358.501 323.398 358.509 323.353C 362.962 294.11 374.197 213.52899 372.788 191.707C 371.756 175.732 356.121 172.048 352.324 171.388z" stroke="none" fill="none" />
            <path d="M78.867 202.933L32 202.933C 27.589 202.933 24 206.522 24 210.933L24 210.933L24 320.05798C 24 324.469 27.589 328.05798 32 328.05798L32 328.05798L78.867004 328.05798C 83.27801 328.05798 86.867004 324.469 86.867004 320.05798L86.867004 320.05798L86.867004 210.933C 86.867 206.522 83.278 202.933 78.867 202.933z" stroke="none" fill="#73D0F4" fill-rule="nonzero" />
            <path d="M396.737 190.159C 394.804 160.235 368.392 149.155 354.69598 147.476C 354.21298 147.416 353.724 147.387 353.23697 147.387L353.23697 147.387L285.83597 147.387C 285.47897 147.33499 285.14297 147.28299 284.82898 147.23099C 285.53098 145.486 286.404 143.48499 287.18198 141.69998C 293.179 127.94698 303.21597 104.928986 301.49298 70.03398C 301.49298 70.03198 301.49197 70.02998 301.49197 70.027985C 301.16998 46.318985 281.79498 27.128986 258.011 27.128986C 234.027 27.128986 214.51398 46.641987 214.51398 70.62599C 214.51398 70.68399 214.52197 70.73899 214.52298 70.79699C 214.52399 70.85499 214.51698 70.90899 214.51898 70.96699C 215.17598 94.11398 214.38199 94.89799 194.04398 114.99098C 191.91498 117.094986 189.61197 119.36998 187.12097 121.859985C 166.31197 142.67099 158.43697 169.26698 155.53297 184.06499L155.53297 184.06499L96.217 184.06499C 91.214005 180.82298 85.259 178.93199 78.867004 178.93199L78.867004 178.93199L32 178.93199C 14.355 178.93199 0 193.28699 0 210.93199L0 210.93199L0 320.057C 0 337.702 14.356 352.057 32 352.057L32 352.057L78.867004 352.057C 86.812004 352.057 94.08401 349.14 99.684006 344.33002L99.684006 344.33002L161.85501 344.33002C 168.376 344.48303 175.21101 344.84302 177.824 347.545C 179.285 348.83902 180.21701 350.24503 181.55101 352.15903C 193.67801 369.54004 211.92801 369.46002 215.878 369.52002C 215.93901 369.52203 216.001 369.52002 216.063 369.52002C 216.063 369.52002 325.751 370.06302 333.126 369.52002C 367.431 366.99802 380.256 340.22202 382.239 326.93002C 382.908 322.538 398.602 219.028 396.737 190.159zM86.867 320.058C 86.867 324.46902 83.278 328.058 78.867 328.058L78.867 328.058L32 328.058C 27.589 328.058 24 324.46902 24 320.058L24 320.058L24 210.933C 24 206.522 27.589 202.933 32 202.933L32 202.933L78.867004 202.933C 83.27801 202.933 86.867004 206.522 86.867004 210.933L86.867004 210.933L86.867004 320.058zM110.732 208.066L110.787 208.066C 110.771 208.249 110.753 208.295 110.732 208.066zM358.508 323.353C 358.5 323.398 357.567 328.205 354.159 333.066C 349.283 340.021 341.615 343.92902 331.366 344.682C 324.011 345.223 216.16 345.521 216.16 345.521C 215.281 345.507 206.017 346.025 201.37401 338.628C 199.71701 335.985 197.42801 332.848 193.738 329.57898C 184.03201 320.981 166.198 320.313 160.964 320.313L160.964 320.313L110.86 320.313C 110.861 320.222 110.867004 208.06499 110.867004 208.06499L110.867004 208.06499L165.883 208.06499C 172.18599 208.06499 177.414 203.18799 177.85399 196.90099C 177.87799 196.55899 180.51698 162.40698 204.09299 138.831C 206.54599 136.377 208.81499 134.13599 210.91098 132.06499C 233.93498 109.316986 239.38998 102.66099 238.51498 70.58598C 238.53598 59.85398 247.27298 51.127983 258.00998 51.127983C 268.761 51.127983 277.507 59.874985 277.507 70.624985C 277.507 70.72498 277.521 70.82198 277.522 70.92198C 277.525 71.02098 277.517 71.11698 277.522 71.21698C 278.96802 100.49198 270.672 119.517975 265.182 132.10797C 260.699 142.38898 256.828 151.26797 261.799 160.06497C 266.328 168.08098 275.74802 170.27197 283.448 171.28497C 283.968 171.35297 284.49 171.38797 285.013 171.38797L285.013 171.38797L352.323 171.38797C 356.12 172.04797 371.755 175.73196 372.786 191.70596C 374.196 213.528 362.961 294.11 358.508 323.353z" stroke="none" fill="#3D6889" fill-rule="nonzero" />
		</g>
	</g>
	<g>
	</g>
	<g>
	</g>
	<g>
	</g>
	<g>
	</g>
	<g>
	</g>
	<g>
	</g>
	<g>
	</g>
	<g>
	</g>
	<g>
	</g>
	<g>
	</g>
	<g>
	</g>
	<g>
	</g>
	<g>
	</g>
	<g>
	</g>
	<g>
	</g>
</g>
</svg>