<?xml version="1.0" standalone="no"?>
<!DOCTYPE svg PUBLIC "-//W3C//DTD SVG 1.0//EN" "http://www.w3.org/TR/2001/REC-SVG-20010904/DTD/svg10.dtd">
<svg xmlns="http://www.w3.org/2000/svg" xmlns:xlink="http://www.w3.org/1999/xlink" id="body_1" width="20" height="15">

<g transform="matrix(0.042071722 0 0 0.042071722 2.4999995 -0)">
	<g>
		<g>
            <path d="M165.03 182.948C 169.218 184.048 172.489 187.319 173.589 191.507L173.589 191.507L204.126 307.786L321.592 34.942L48.749 152.409L165.03 182.948z" stroke="none" fill="#73D0F4" fill-rule="nonzero" />
            <path d="M353.02 3.515C 349.54498 0.0400002 344.30298 -0.964 339.78998 0.9790001L339.78998 0.9790001L7.254 144.143C 2.551 146.168 -0.34899998 150.95601 0.032999992 156.06201C 0.41599998 161.16801 3.998 165.47002 8.951 166.77101L8.951 166.77101L152.154 204.38L189.763 347.582C 191.064 352.535 195.365 356.117 200.472 356.5C 200.773 356.522 201.074 356.533 201.372 356.533C 206.13399 356.533 210.485 353.70398 212.39 349.27798L212.39 349.27798L355.555 16.746C 357.499 12.232 356.495 6.991 353.02 3.515zM204.126 307.786L173.589 191.50702C 172.489 187.31902 169.218 184.04802 165.03 182.94801L165.03 182.94801L48.749 152.409L321.592 34.942L204.126 307.786z" stroke="none" fill="#3D6889" fill-rule="nonzero" />
		</g>
	</g>
	<g>
	</g>
	<g>
	</g>
	<g>
	</g>
	<g>
	</g>
	<g>
	</g>
	<g>
	</g>
	<g>
	</g>
	<g>
	</g>
	<g>
	</g>
	<g>
	</g>
	<g>
	</g>
	<g>
	</g>
	<g>
	</g>
	<g>
	</g>
	<g>
	</g>
</g>
</svg>