<?xml version="1.0" encoding="UTF-8"?>
<svg xmlns="http://www.w3.org/2000/svg" xmlns:xlink="http://www.w3.org/1999/xlink" width="24px" height="24px" viewBox="0 0 24 24" version="1.1">
<g id="surface1">
<path style=" stroke:none;fill-rule:nonzero;fill:rgb(0%,0%,0%);fill-opacity:1;" d="M 20 3.617188 L 4 3.617188 C 3.117188 3.617188 2.402344 4.332031 2.402344 5.214844 L 2.402344 15.617188 C 2.402344 16.5 3.117188 17.214844 4 17.214844 L 15.226562 17.214844 L 18.398438 20.382812 L 18.398438 17.214844 L 20 17.214844 C 20.882812 17.214844 21.597656 16.5 21.597656 15.617188 L 21.597656 5.214844 C 21.597656 4.332031 20.882812 3.617188 20 3.617188 Z M 20.796875 15.617188 C 20.796875 16.054688 20.4375 16.417969 20 16.417969 L 17.597656 16.417969 L 17.597656 18.453125 L 15.558594 16.417969 L 4 16.417969 C 3.558594 16.417969 3.203125 16.054688 3.203125 15.617188 L 3.203125 5.214844 C 3.203125 4.773438 3.5625 4.417969 4 4.417969 L 20 4.417969 C 20.441406 4.417969 20.796875 4.773438 20.796875 5.214844 Z M 20.796875 15.617188 "/>
<path style=" stroke:none;fill-rule:nonzero;fill:rgb(0%,0%,0%);fill-opacity:1;" d="M 12 9.617188 C 11.558594 9.617188 11.199219 9.976562 11.199219 10.417969 C 11.199219 10.855469 11.558594 11.21875 12 11.21875 C 12.441406 11.21875 12.800781 10.859375 12.800781 10.417969 C 12.800781 9.976562 12.441406 9.617188 12 9.617188 Z M 12 9.617188 "/>
<path style=" stroke:none;fill-rule:nonzero;fill:rgb(0%,0%,0%);fill-opacity:1;" d="M 15.199219 9.617188 C 14.757812 9.617188 14.398438 9.976562 14.398438 10.417969 C 14.398438 10.855469 14.757812 11.21875 15.199219 11.21875 C 15.640625 11.21875 16 10.859375 16 10.417969 C 16 9.976562 15.640625 9.617188 15.199219 9.617188 Z M 15.199219 9.617188 "/>
<path style=" stroke:none;fill-rule:nonzero;fill:rgb(0%,0%,0%);fill-opacity:1;" d="M 8.875 9.617188 C 8.433594 9.617188 8.078125 9.976562 8.078125 10.417969 C 8.078125 10.855469 8.433594 11.21875 8.875 11.21875 C 9.320312 11.21875 9.675781 10.859375 9.675781 10.417969 C 9.675781 9.976562 9.320312 9.617188 8.875 9.617188 Z M 8.875 9.617188 "/>
</g>
</svg>
