<?xml version="1.0" standalone="no"?>
<!DOCTYPE svg PUBLIC "-//W3C//DTD SVG 1.0//EN" "http://www.w3.org/TR/2001/REC-SVG-20010904/DTD/svg10.dtd">
<svg xmlns="http://www.w3.org/2000/svg" xmlns:xlink="http://www.w3.org/1999/xlink" id="body_1" width="20" height="15">

<g transform="matrix(0.035668 0 0 0.035668 2.5 -0)">
	<g>
		<g>
            <path d="M302.747 114.797C 312.54202 124.048 325.358 129.14299 338.837 129.14299C 367.825 129.14299 391.407 105.55899 391.407 76.57099C 391.407 47.583992 367.825 24.000992 338.837 24.000992C 311.306 24.000992 288.271 45.48799 286.392 72.91799C 286.31 74.12799 286.267 75.35899 286.267 76.57099C 286.267 91.183 292.12 104.758 302.747 114.797z" stroke="none" fill="none" />
            <path d="M275.448 119.454C 269.602 110.788 265.567 100.987 263.62 90.707L263.62 90.707L136.708 152.52C 143.954 160.00801 149.69199 168.95801 153.41899 178.89L153.41899 178.89L275.448 119.454z" stroke="none" fill="none" />
            <path d="M136.71 258.906L265.589 321.676C 268.677 311.548 273.818 302.314 280.517 294.439L280.517 294.439L153.42099 232.536C 149.692 242.468 143.954 251.418 136.71 258.906z" stroke="none" fill="none" />
            <path d="M338.837 291.404C 309.851 291.404 286.267 314.987 286.267 343.974C 286.267 372.961 309.851 396.544 338.837 396.544C 367.825 396.544 391.407 372.961 391.407 343.974C 391.407 314.987 367.825 291.404 338.837 291.404z" stroke="none" fill="none" />
            <path d="M134.28 205.713C 134.28 176.726 110.696 153.143 81.708 153.143C 52.722 153.143 29.138 176.72601 29.138 205.71301C 29.138 234.70001 52.722 258.28302 81.708 258.28302C 110.696 258.283 134.28 234.7 134.28 205.713z" stroke="none" fill="#73D0F4" fill-rule="nonzero" />
            <path d="M338.837 267.404C 324.976 267.404 311.974 271.12598 300.745 277.594L300.745 277.594L158.218 208.176C 158.243 207.357 158.281 206.538 158.281 205.71199C 158.281 204.88599 158.244 204.06699 158.218 203.247L158.218 203.247L292.765 137.715C 305.992 147.704 322.058 153.142 338.837 153.142C 381.058 153.142 415.407 118.792 415.407 76.57C 415.407 34.349 381.057 0 338.837 0C 301.148 0 269.245 27.663 263.274 64.18L263.274 64.18L114.611984 136.58499C 104.636986 131.818 93.47899 129.14299 81.707985 129.14299C 39.486984 129.14299 5.137985 163.49298 5.137985 205.71298C 5.137985 247.93498 39.487984 282.283 81.707985 282.283C 93.48199 282.283 104.637985 279.607 114.611984 274.841L114.611984 274.841L262.339 346.79C 263.827 387.71002 297.56198 420.545 338.83698 420.545C 381.05798 420.545 415.40698 386.196 415.40698 343.975C 415.407 301.754 381.058 267.404 338.837 267.404zM286.392 72.917C 288.271 45.487 311.306 24 338.837 24C 367.825 24 391.407 47.583 391.407 76.57C 391.407 105.558 367.825 129.142 338.837 129.142C 325.358 129.142 312.542 124.047 302.747 114.796C 292.12 104.756996 286.267 91.182 286.267 76.569C 286.267 75.358 286.31 74.127 286.392 72.917zM263.62 90.707C 265.567 100.987 269.602 110.788 275.448 119.454L275.448 119.454L153.419 178.89C 149.692 168.958 143.95401 160.008 136.70801 152.52L136.70801 152.52L263.62 90.707zM29.138 205.713C 29.138 176.726 52.722 153.143 81.708 153.143C 110.696 153.143 134.28 176.72601 134.28 205.71301C 134.28 234.70001 110.696 258.28302 81.708 258.28302C 52.722 258.283 29.138 234.7 29.138 205.713zM265.589 321.677L136.70999 258.907C 143.954 251.419 149.69199 242.46802 153.42099 232.53702L153.42099 232.53702L280.517 294.44C 273.817 302.315 268.677 311.549 265.589 321.677zM338.837 396.545C 309.851 396.545 286.267 372.962 286.267 343.975C 286.267 314.988 309.851 291.405 338.837 291.405C 367.825 291.405 391.407 314.988 391.407 343.975C 391.407 372.962 367.825 396.545 338.837 396.545z" stroke="none" fill="#3D6889" fill-rule="nonzero" />
		</g>
	</g>
	<g>
	</g>
	<g>
	</g>
	<g>
	</g>
	<g>
	</g>
	<g>
	</g>
	<g>
	</g>
	<g>
	</g>
	<g>
	</g>
	<g>
	</g>
	<g>
	</g>
	<g>
	</g>
	<g>
	</g>
	<g>
	</g>
	<g>
	</g>
	<g>
	</g>
</g>
</svg>