<?xml version="1.0" encoding="UTF-8"?>
<svg xmlns="http://www.w3.org/2000/svg" xmlns:xlink="http://www.w3.org/1999/xlink" width="24px" height="24px" viewBox="0 0 24 24" version="1.1">
<g id="surface1">
<path style=" stroke:none;fill-rule:nonzero;fill:rgb(0%,0%,0%);fill-opacity:1;" d="M 24 5.019531 L 24 4.628906 C 24 3.574219 23.140625 2.714844 22.085938 2.714844 L 1.914062 2.714844 C 0.859375 2.714844 0 3.574219 0 4.628906 L 0 19.371094 C 0 20.425781 0.859375 21.285156 1.914062 21.285156 L 22.085938 21.285156 C 23.140625 21.285156 24 20.425781 24 19.371094 Z M 1.914062 3.445312 L 22.085938 3.445312 C 22.742188 3.445312 23.273438 3.976562 23.273438 4.628906 L 23.273438 4.867188 C 21.570312 6.5625 18.769531 9.351562 16.449219 11.667969 L 12.804688 8.023438 C 12.363281 7.582031 11.636719 7.582031 11.195312 8.023438 L 0.726562 18.492188 L 0.726562 4.628906 C 0.726562 3.976562 1.257812 3.445312 1.914062 3.445312 Z M 22.085938 20.554688 L 1.914062 20.554688 C 1.308594 20.554688 0.804688 20.101562 0.734375 19.511719 L 11.707031 8.539062 C 11.867188 8.378906 12.132812 8.378906 12.292969 8.539062 L 15.933594 12.183594 C 14.023438 14.09375 12.546875 15.574219 12.484375 15.660156 C 12.363281 15.820312 12.398438 16.050781 12.558594 16.171875 C 12.625 16.21875 12.699219 16.242188 12.773438 16.242188 C 12.882812 16.242188 12.984375 16.195312 13.054688 16.105469 C 13.335938 15.796875 20.023438 9.128906 23.273438 5.894531 L 23.273438 19.371094 C 23.273438 20.023438 22.742188 20.554688 22.085938 20.554688 Z M 22.085938 20.554688 "/>
<path style=" stroke:none;fill-rule:nonzero;fill:rgb(0%,0%,0%);fill-opacity:1;" d="M 5.019531 9.648438 C 6.074219 9.648438 6.933594 8.789062 6.933594 7.734375 C 6.933594 6.675781 6.074219 5.816406 5.019531 5.816406 C 3.960938 5.816406 3.105469 6.675781 3.105469 7.734375 C 3.105469 8.789062 3.960938 9.648438 5.019531 9.648438 Z M 5.019531 6.542969 C 5.671875 6.542969 6.207031 7.078125 6.207031 7.734375 C 6.207031 8.390625 5.671875 8.921875 5.019531 8.921875 C 4.363281 8.921875 3.832031 8.390625 3.832031 7.734375 C 3.832031 7.078125 4.363281 6.542969 5.019531 6.542969 Z M 5.019531 6.542969 "/>
</g>
</svg>
